<?xml version="1.0" ?><!DOCTYPE svg  PUBLIC '-//W3C//DTD SVG 1.1//EN'  'http://www.w3.org/Graphics/SVG/1.1/DTD/svg11.dtd'><svg enable-background="new 0 0 48 48" height="45px" id="_x3C_Layer_x3E_" version="1.1" viewBox="0 0 50 50" width="45px" xml:space="preserve" xmlns="http://www.w3.org/2000/svg" xmlns:xlink="http://www.w3.org/1999/xlink"><g id="Homepage"><g><path d="M39.5,15.5c-0.276,0-0.5-0.224-0.5-0.5V6h-5v4c0,0.276-0.224,0.5-0.5,0.5S33,10.276,33,10V6    c0-0.551,0.448-1,1-1h5c0.552,0,1,0.449,1,1v9C40,15.276,39.776,15.5,39.5,15.5z" fill="#003156"/></g><g><g><path d="M42.914,25.493c-0.234,0-0.458-0.083-0.64-0.236l-18-15.228c-0.179-0.153-0.441-0.154-0.624,0     L5.725,25.239c-0.203,0.173-0.455,0.257-0.729,0.232c-0.266-0.023-0.507-0.15-0.677-0.356L2.731,23.2     c-0.35-0.419-0.296-1.05,0.121-1.404L23.051,4.659c0.555-0.472,1.363-0.472,1.918,0l20.18,17.155c0,0,0,0,0.001,0     c0.413,0.354,0.468,0.982,0.121,1.403l-1.592,1.917c-0.171,0.206-0.411,0.332-0.677,0.355     C42.973,25.492,42.943,25.493,42.914,25.493z M23.964,8.913c0.34,0,0.68,0.118,0.957,0.353l18.001,15.228l1.902-2.3L44.5,22.575     L24.321,5.421c-0.18-0.152-0.442-0.155-0.624,0L3.5,22.558l1.59,1.918L23.004,9.267C23.282,9.031,23.623,8.913,23.964,8.913z" fill="#003156"/></g></g><g><g><path d="M40,45H24.5c-0.276,0-0.5-0.224-0.5-0.5s0.224-0.5,0.5-0.5H40V26.585L24.322,13.423     c-0.186-0.156-0.457-0.156-0.645,0.001L8,26.609V44h3.53c0.276,0,0.5,0.224,0.5,0.5s-0.224,0.5-0.5,0.5H8c-0.552,0-1-0.449-1-1     V26.376c0-0.147,0.065-0.288,0.178-0.383l15.856-13.335c0.561-0.471,1.372-0.47,1.931-0.001L40.821,25.97     C40.935,26.064,41,26.205,41,26.353V44C41,44.551,40.552,45,40,45z" fill="#003156"/></g></g><g><path d="M24,21c-1.103,0-2-0.897-2-2s0.897-2,2-2s2,0.897,2,2S25.103,21,24,21z M24,18c-0.552,0-1,0.449-1,1    s0.448,1,1,1s1-0.449,1-1S24.552,18,24,18z" fill="#003156"/></g><g><path d="M35,39h-8c-0.552,0-1-0.449-1-1v-5.5c0-0.276,0.224-0.5,0.5-0.5s0.5,0.224,0.5,0.5V38h8v-7h-8.5    c-0.276,0-0.5-0.224-0.5-0.5s0.224-0.5,0.5-0.5H35c0.552,0,1,0.449,1,1v7C36,38.551,35.552,39,35,39z" fill="#003156"/></g><path d="M22.5,45c-0.276,0-0.5-0.224-0.5-0.5V31h-8v13.5c0,0.276-0.224,0.5-0.5,0.5S13,44.776,13,44.5V31   c0-0.551,0.448-1,1-1h8c0.552,0,1,0.449,1,1v13.5C23,44.776,22.776,45,22.5,45z" fill="#003156"/><path d="M20.5,38c-0.276,0-0.5-0.224-0.5-0.5v-1c0-0.276,0.224-0.5,0.5-0.5s0.5,0.224,0.5,0.5v1   C21,37.776,20.776,38,20.5,38z" fill="#003156"/><path d="M22.5,45h-9c-0.276,0-0.5-0.224-0.5-0.5s0.224-0.5,0.5-0.5h9c0.276,0,0.5,0.224,0.5,0.5S22.776,45,22.5,45z   " fill="#003156"/></g></svg>
