<svg xmlns="http://www.w3.org/2000/svg" width="46" height="43" viewBox="0 0 46 43" fill="none">
	<path d="M24.2478 0.260742C24.2562 0.396342 24.2702 0.530674 24.2702 0.666273C24.2702 5.55672 24.2702 10.4472 24.2702 15.3376C24.2702 15.4846 24.2702 15.6316 24.2702 15.8053H21.1962C21.1821 15.7051 21.1555 15.6025 21.1555 15.4998C21.1541 10.4877 21.1541 5.47435 21.1555 0.46224C21.1555 0.395074 21.1695 0.327908 21.1779 0.260742C22.2017 0.260742 23.224 0.260742 24.2478 0.260742V0.260742Z" fill="#3C87C0"/>
	<path d="M27.4101 18.9534C31.1629 19.4945 34.7012 20.3892 37.7121 22.4992C38.4049 22.9846 39.0402 23.5752 39.5661 24.2088C41.1255 26.0894 41.1003 28.2375 39.5619 30.1359C38.318 31.6706 36.6056 32.6692 34.7334 33.4574C31.7968 34.6943 28.6807 35.2988 25.4664 35.5307C21.8707 35.7905 18.3156 35.5751 14.8152 34.7691C12.3218 34.195 9.92929 33.3839 7.89021 31.9316C7.07542 31.3512 6.30971 30.658 5.71089 29.8938C4.30569 28.1019 4.38843 26.0692 5.79784 24.2722C6.77671 23.0252 8.09496 22.1368 9.54784 21.3929C11.8183 20.2295 15.3299 19.2271 18.0183 18.9838V19.4172C18.0183 20.9798 18.0183 22.5436 18.0183 24.1061C18.0183 25.1757 18.6129 25.7232 19.7811 25.7245C21.736 25.727 23.691 25.727 25.6473 25.7245C26.8141 25.7232 27.4087 25.1757 27.4101 24.1061C27.4115 22.5563 27.4101 21.0076 27.4101 19.4577C27.4101 19.3095 27.4101 19.1625 27.4101 18.9534ZM6.26904 27.1666C6.29429 27.377 6.3027 27.5392 6.33496 27.6964C6.54672 28.7343 7.20865 29.5289 8.04027 30.2233C9.31785 31.2904 10.824 32.0267 12.4382 32.5691C18.3437 34.5511 24.3529 34.7133 30.4309 33.3231C32.7771 32.7858 34.9985 31.9709 36.917 30.5921C37.785 29.9673 38.5311 29.2399 38.9126 28.2742C39.0486 27.9295 39.0963 27.5582 39.1902 27.178H37.6686C37.5186 27.5341 37.4597 27.9055 37.2367 28.1526C36.7178 28.7254 36.1821 29.3134 35.5398 29.7595C33.9074 30.8925 32.0016 31.5299 30.027 31.9937C26.2083 32.8897 22.3363 33.0228 18.439 32.5425C15.8782 32.2269 13.396 31.6389 11.1269 30.4831C9.62217 29.7164 8.19032 28.8572 7.77942 27.1679H6.27045L6.26904 27.1666Z" fill="#3C87C0"/>
	<path d="M19.6143 17.2577H25.8213V24.2899H19.6143V17.2577Z" fill="#3C87C0"/>
	<path d="M3.16417 10.1609C3.60873 10.1609 4.02805 10.1457 4.44456 10.171C4.54413 10.1774 4.69699 10.3054 4.71662 10.3966C5.07844 12.0365 5.98859 12.8222 7.79908 13.011V14.3835C5.94933 14.5799 4.89753 15.5025 4.68156 17.207H3.25112C3.0618 16.7204 2.9468 16.2375 2.69437 15.8206C2.20493 15.0095 1.40697 14.547 0.383223 14.4456C0.106952 14.4177 -0.0164589 14.3455 0.00177222 14.0768C0.0256129 13.727 0.00738179 13.376 0.00738179 13.0288C2.10536 12.8336 3.05198 11.579 3.16277 10.1596L3.16417 10.1609Z" fill="#3C87C0"/>
	<path d="M39.1917 8.03924C39.6236 8.03924 40.057 8.02403 40.4875 8.05064C40.5787 8.05571 40.7147 8.20398 40.7343 8.30283C41.0541 9.87807 42.0427 10.7233 43.8462 10.8881V12.2542C41.96 12.4545 40.8984 13.3884 40.6908 15.0955H39.1917C39.1328 14.8217 39.1089 14.5493 39.0136 14.2996C38.5872 13.173 37.7318 12.4874 36.4121 12.3252C36.1162 12.2884 35.99 12.2111 36.0111 11.9273C36.0363 11.5914 36.0167 11.2531 36.0167 10.9058C37.9197 10.7094 38.9645 9.76528 39.1903 8.03924H39.1917Z" fill="#3C87C0"/>
	<path d="M27.4298 5.18794V3.82308C29.302 3.64186 30.3398 2.7028 30.5726 1.00464H32.0718C32.2933 2.66605 33.3157 3.63425 35.2187 3.82435V5.18414C33.3577 5.3679 32.3017 6.30696 32.076 8.01525H30.5782C30.351 6.34497 29.3399 5.38311 27.4298 5.18921V5.18794Z" fill="#3C87C0"/>
	<path d="M16.456 7.30555C14.6764 7.45256 13.497 8.41443 13.2782 10.1367H11.7917C11.5575 8.47652 10.5576 7.50579 8.65733 7.31443V5.94829C10.5099 5.7582 11.5561 4.82928 11.7777 3.12732H13.2965C13.4269 4.40094 14.0972 5.30578 15.4337 5.76074C15.6006 5.81776 15.7843 5.8862 15.954 5.87733C16.4294 5.84945 16.4939 6.07629 16.4617 6.42733C16.4336 6.72007 16.456 7.01661 16.456 7.30555Z" fill="#3C87C0"/>
	<path d="M14.8587 36.3036C16.4617 36.5317 17.9847 36.7485 19.582 36.9753C19.4067 37.6102 19.2398 38.2641 19.0407 38.9092C18.9285 39.2742 18.7841 39.6341 18.62 39.9826C18.2035 40.8697 17.1979 41.3398 16.1532 41.1383C15.3047 40.9748 14.5025 40.6935 14.1646 39.9015C14.0047 39.5276 13.9135 39.0587 14.0103 38.6785C14.2193 37.8662 14.5713 37.0843 14.8587 36.3024V36.3036Z" fill="#3C87C0"/>
	<path d="M25.7932 36.9855C27.4424 36.7524 28.9654 36.5357 30.5852 36.3063C30.8671 37.1414 31.1728 37.988 31.4295 38.8484C31.4954 39.069 31.4351 39.3376 31.3734 39.5708C31.1321 40.4807 30.1743 41.1093 28.9697 41.1714C28.009 41.2208 27.1185 40.6898 26.7889 39.8205C26.4369 38.889 26.1284 37.9436 25.7932 36.9855Z" fill="#3C87C0"/>
	<path d="M24.2506 37.0437C24.5198 38.0385 24.8143 39.0068 25.0303 39.9889C25.0962 40.2854 25.0135 40.6479 24.8788 40.9343C24.3571 42.0482 23.1006 42.2307 21.7473 41.924C20.7025 41.6871 20.1864 40.7176 20.4543 39.6847C20.6352 38.9852 20.8203 38.2869 21.0279 37.5937C21.2284 36.9246 21.0475 37.0387 21.8469 37.0425C22.6266 37.0463 23.4063 37.0425 24.2492 37.0425L24.2506 37.0437Z" fill="#3C87C0"/>
	<path d="M32.0493 35.9615C33.275 35.5103 34.4376 35.0794 35.6044 34.6587C35.6857 34.6296 35.812 34.6359 35.8905 34.6726C37.4528 35.4013 37.593 37.0881 36.178 38.0373C35.7152 38.3478 35.251 38.6367 34.6367 38.6329C33.8262 38.6278 33.2021 38.3174 32.8417 37.6698C32.5332 37.1172 32.3074 36.5267 32.0493 35.9627V35.9615Z" fill="#3C87C0"/>
	<path d="M13.3764 35.9578C13.1254 36.509 12.8968 37.0679 12.6191 37.6065C12.2335 38.3542 11.4215 38.7597 10.5085 38.6C9.38521 38.4049 7.86361 37.3252 8.34603 35.9438C8.55078 35.3583 9.03461 35.0073 9.54508 34.6689C9.60398 34.6296 9.70916 34.6436 9.7919 34.641C9.81855 34.641 9.84519 34.6651 9.87324 34.6753C11.0232 35.096 12.1718 35.5167 13.3764 35.9578Z" fill="#3C87C0"/>
	<path d="M3.29298 25.9677C2.97323 27.2603 3.1892 28.4452 3.74455 29.6682C3.1317 29.7721 2.56654 29.9292 1.99576 29.9533C0.987442 29.9964 0.140396 29.2918 0.0394237 28.3857C0.000156634 28.0372 -0.00124576 27.6785 0.0394237 27.33C0.155822 26.282 1.23847 25.5723 2.38703 25.7713C2.67873 25.8219 2.96482 25.8955 3.29438 25.9664L3.29298 25.9677Z" fill="#3C87C0"/>
	<path d="M42.1423 26.008C43.3455 25.5441 44.3749 25.7051 44.9947 26.4338C45.602 27.1472 45.6006 28.6338 44.9611 29.3029C44.1337 30.1672 43.2193 30.1013 41.7159 29.5969C42.2306 28.4462 42.4522 27.2613 42.1423 26.008Z" fill="#3C87C0"/>
	<path d="M8.05012 33.8501C7.41343 34.1948 6.79778 34.5839 6.13024 34.8753C5.42483 35.1833 4.68297 35.0946 4.10798 34.6155C3.31844 33.9578 3.00991 33.1011 3.23009 32.1418C3.35209 31.6121 3.74617 31.2256 4.30292 31.0076C4.40249 30.9683 4.61565 30.9962 4.67315 31.0646C5.59312 32.1443 6.73186 32.9985 7.9856 33.7386C8.00664 33.7513 8.01365 33.7842 8.05012 33.8501Z" fill="#3C87C0"/>
	<path d="M37.4275 33.8616C38.3166 33.1659 39.1805 32.498 40.0317 31.8149C40.2435 31.6451 40.4454 31.4474 40.5871 31.2282C40.8255 30.8594 41.0807 30.9354 41.3907 31.1255C42.0694 31.5425 42.406 32.28 42.2349 33.0062C42.2321 33.0189 42.2293 33.0328 42.2265 33.0467C41.7763 35.1555 39.935 35.5154 38.4905 34.4699C38.1539 34.2253 37.7585 34.0466 37.4303 33.8603L37.4275 33.8616Z" fill="#3C87C0"/>
	<path d="M3.92426 24.3341C2.78271 23.5445 3.03795 22.2595 3.79243 21.2419C4.31132 20.5411 5.59591 20.1178 7.00953 21.1823C5.75579 22.0555 4.66893 23.0617 3.92426 24.3341Z" fill="#3C87C0"/>
	<path d="M41.5028 24.3278C40.7581 23.0719 39.7007 22.0631 38.4512 21.2115C39.287 20.3662 40.7287 20.2991 41.5126 21.1152C42.2924 21.9263 42.7383 23.5395 41.5028 24.3278Z" fill="#3C87C0"/>
</svg>
