<?xml version="1.0" ?><svg viewBox="0 0 20.597 20.604" xmlns="http://www.w3.org/2000/svg"><defs><style>.cls-1{fill:#003156;}</style></defs><g data-name="Layer 2" id="Layer_2"><g data-name="Layer 1" id="Layer_1-2"><path class="cls-1" d="M2.949,6.66a.313.313,0,0,1,0,.625A.313.313,0,0,1,2.949,6.66Zm1.8.625a.313.313,0,0,0,0-.625A.313.313,0,0,0,4.752,7.285Zm-1.8,1.664a.312.312,0,0,0,0-.624A.312.312,0,0,0,2.949,8.949Zm1.8,0a.312.312,0,0,0,0-.624A.312.312,0,0,0,4.752,8.949Zm-1.8,1.665a.312.312,0,0,0,0-.624A.312.312,0,0,0,2.949,10.614Zm1.8,0a.312.312,0,0,0,0-.624A.312.312,0,0,0,4.752,10.614Zm-1.8,1.665a.312.312,0,0,0,0-.624A.312.312,0,0,0,2.949,12.279Zm1.8,0a.312.312,0,0,0,0-.624A.312.312,0,0,0,4.752,12.279Zm0,1.665a.312.312,0,0,0,0-.624A.312.312,0,0,0,4.752,13.944Zm-1.8,0a.312.312,0,0,0,0-.624A.312.312,0,0,0,2.949,13.944Zm0,1.666a.313.313,0,0,0,0-.625A.313.313,0,0,0,2.949,15.61Zm1.8,0a.313.313,0,0,0,0-.625A.313.313,0,0,0,4.752,15.61Zm0,1.665a.313.313,0,0,0,0-.625A.313.313,0,0,0,4.752,17.275Zm-1.8,0a.313.313,0,0,0,0-.625A.313.313,0,0,0,2.949,17.275Zm0,1.664a.31.31,0,0,0,0-.62A.31.31,0,0,0,2.949,18.939Zm1.8,0a.31.31,0,0,0,0-.62A.31.31,0,0,0,4.752,18.939ZM10.3,2.289a.313.313,0,0,0,0-.625A.313.313,0,0,0,10.3,2.289Zm-1.873,0a.313.313,0,0,0,0-.625A.313.313,0,0,0,8.427,2.289Zm3.746,0a.313.313,0,0,0,0-.625A.313.313,0,0,0,12.173,2.289ZM8.427,3.954a.312.312,0,0,0,0-.624A.312.312,0,0,0,8.427,3.954Zm1.873,0a.312.312,0,0,0,0-.624A.312.312,0,0,0,10.3,3.954Zm1.873,0a.312.312,0,0,0,0-.624A.312.312,0,0,0,12.173,3.954Zm0,1.665a.312.312,0,0,0,0-.624A.312.312,0,0,0,12.173,5.619Zm-3.746,0a.312.312,0,0,0,0-.624A.312.312,0,0,0,8.427,5.619Zm1.873,0A.312.312,0,0,0,10.3,5,.312.312,0,0,0,10.3,5.619Zm0,1.666a.313.313,0,0,0,0-.625A.313.313,0,0,0,10.3,7.285Zm1.873,0a.313.313,0,0,0,0-.625A.313.313,0,0,0,12.173,7.285Zm-3.746,0a.313.313,0,0,0,0-.625A.313.313,0,0,0,8.427,7.285ZM10.3,8.949a.312.312,0,0,0,0-.624A.312.312,0,0,0,10.3,8.949Zm1.873,0a.312.312,0,0,0,0-.624A.312.312,0,0,0,12.173,8.949Zm-3.746,0a.312.312,0,0,0,0-.624A.312.312,0,0,0,8.427,8.949ZM10.3,10.614a.312.312,0,0,0,0-.624A.312.312,0,0,0,10.3,10.614Zm-1.873,0a.312.312,0,0,0,0-.624A.312.312,0,0,0,8.427,10.614Zm3.746,0a.312.312,0,0,0,0-.624A.312.312,0,0,0,12.173,10.614ZM8.427,12.279a.312.312,0,0,0,0-.624A.312.312,0,0,0,8.427,12.279Zm1.873,0a.312.312,0,0,0,0-.624A.312.312,0,0,0,10.3,12.279Zm1.873,0a.312.312,0,0,0,0-.624A.312.312,0,0,0,12.173,12.279Zm0,1.665a.312.312,0,0,0,0-.624A.312.312,0,0,0,12.173,13.944Zm-1.873,0a.312.312,0,0,0,0-.624A.312.312,0,0,0,10.3,13.944Zm-1.873,0a.312.312,0,0,0,0-.624A.312.312,0,0,0,8.427,13.944ZM10.3,15.61a.313.313,0,0,0,0-.625A.313.313,0,0,0,10.3,15.61Zm1.873,0a.313.313,0,0,0,0-.625A.313.313,0,0,0,12.173,15.61Zm-3.746,0a.313.313,0,0,0,0-.625A.313.313,0,0,0,8.427,15.61Zm0,1.665a.311.311,0,0,0,0-.621A.311.311,0,0,0,8.427,17.275Zm1.873,0a.311.311,0,0,0,0-.621A.311.311,0,0,0,10.3,17.275Zm1.873,0a.311.311,0,0,0,0-.621A.311.311,0,0,0,12.173,17.275ZM8.427,18.939a.312.312,0,0,0,0-.624A.312.312,0,0,0,8.427,18.939Zm1.873,0a.312.312,0,0,0,0-.624A.312.312,0,0,0,10.3,18.939Zm1.873,0a.312.312,0,0,0,0-.624A.312.312,0,0,0,12.173,18.939ZM20.292,20.6H.312a.312.312,0,0,1,0-.624H.833V5.619C.571,5.6,0,5.728,0,5.307A.312.312,0,0,1,.312,5H6.244V.624H5.723a.312.312,0,0,1,0-.624h9.158a.312.312,0,0,1,0,.624h-.52V7.493h5.932a.312.312,0,0,1,0,.624h-.521V19.98h.519A.312.312,0,0,1,20.292,20.6ZM6.244,5.619H1.457V19.98H6.244ZM13.736.624H6.868V19.98h6.868Zm5.413,7.493H14.361V9.574h3.226a.313.313,0,1,1,0,.625H14.361v1.457h3.226a.313.313,0,1,1,0,.625H14.361v1.456h3.226a.313.313,0,1,1,0,.625H14.361v1.457h3.226a.313.313,0,1,1,0,.625H14.361V17.9h3.226a.312.312,0,1,1,0,.624H14.361V19.98h4.788Z" id="office"/></g></g></svg>
