<svg xmlns="http://www.w3.org/2000/svg" width="46" height="43" viewBox="0 0 46 43" fill="none">
    <path d="M15.5721 15.9406C13.0167 15.9406 10.5593 15.9406 8.10192 15.9406C7.35867 15.9406 6.6139 15.9504 5.87065 15.9336C5.33243 15.9224 4.94648 15.6329 4.9299 15.1434C4.89221 14.1126 4.91784 13.0803 4.91784 12.0173H30.4237C30.4237 13.0929 30.4598 14.1531 30.4086 15.2091C30.3845 15.7042 29.9578 15.9378 29.3141 15.9378C26.4843 15.9406 23.653 15.9378 20.8232 15.9378C20.5051 15.9378 20.1854 15.9378 19.8161 15.9378C19.8749 16.0805 19.905 16.177 19.9518 16.2665C20.5488 17.4134 21.1383 18.5631 21.7564 19.7017C21.8318 19.8401 22.0504 19.9982 22.2041 19.9996C26.5551 20.0136 30.9061 20.0094 35.2571 20.0066C35.3038 20.0066 35.349 19.987 35.34 19.9884C34.9857 18.6373 34.6314 17.2889 34.2771 15.942C34.2078 15.6805 34.1279 15.4189 34.0826 15.1546C34.0073 14.7224 34.2108 14.4664 34.6721 14.465C37.1627 14.4552 39.6533 14.4538 42.1439 14.465C42.6489 14.4678 42.8268 14.7601 42.6911 15.2972C42.361 16.5952 42.0263 17.8918 41.6855 19.187C41.6177 19.4429 41.5167 19.6933 41.4202 19.98C41.5333 19.9898 41.6674 20.0094 41.8016 20.0094C42.6911 20.0122 43.5806 20.0094 44.4701 20.0108C45.3023 20.0108 45.4365 20.1339 45.4365 20.8891C45.4365 24.1746 45.4365 27.4615 45.4365 30.747C45.4365 34.3626 45.4305 37.9796 45.4455 41.5952C45.447 41.9938 45.3551 42.1588 44.8862 42.135C44.1279 42.0987 43.365 42.1029 42.6067 42.1336C42.165 42.1518 42.0263 42.0315 42.0293 41.6077C42.0474 38.2467 42.0398 34.8857 42.0398 31.5247V24.3201H32.9866C32.2494 22.2878 31.0041 21.3353 29.1934 21.3787C27.413 21.422 26.2054 22.3941 25.5963 24.3061H3.40118V24.8782C3.40118 30.4295 3.40118 35.9823 3.40118 41.5336C3.40118 41.928 3.18961 42.1257 2.76647 42.1266C2.00663 42.1266 1.24529 42.1141 0.485452 42.1322C0.144731 42.1462 0 42.0693 0 41.7168C0.00904569 34.7095 0.00603046 27.7021 0.00904569 20.6947C0.00904569 20.1786 0.212574 20.0178 0.848787 20.0178C3.19463 20.015 5.53898 20.0178 7.88482 20.0164C9.5824 20.0164 11.2815 20.0052 12.9791 20.0248C13.3439 20.029 13.5203 19.9143 13.671 19.6149C14.2756 18.4093 14.9088 17.2162 15.5721 15.942V15.9406ZM38.4246 18.3533C39.0759 18.3421 39.6111 17.8302 39.605 17.2232C39.6005 16.6176 39.0532 16.1127 38.402 16.1127C37.7341 16.1127 37.1702 16.6511 37.1944 17.2666C37.2185 17.8764 37.7718 18.3645 38.4246 18.3533ZM17.6828 14.6678C18.1049 14.6636 18.4517 14.3363 18.4396 13.9531C18.4276 13.5713 18.0597 13.2552 17.6436 13.2691C17.2456 13.2831 16.9154 13.5978 16.9124 13.9657C16.9094 14.3545 17.2562 14.672 17.6813 14.6664L17.6828 14.6678Z" fill="#3C87C0"/>
    <path d="M30.4583 10.9753H4.89673C4.89673 10.7963 4.89673 10.6368 4.89673 10.476C4.89673 7.50521 4.89673 4.53442 4.89673 1.56363C4.89824 0.608334 5.19222 0.341187 6.23247 0.341187C13.867 0.341187 21.5001 0.341187 29.1346 0.341187C30.1643 0.341187 30.4583 0.613929 30.4583 1.57762C30.4583 4.54841 30.4583 7.5192 30.4583 10.49V10.9753Z" fill="#3C87C0"/>
    <path d="M32.4363 42.1154H29.8055C29.8055 41.3839 29.8055 40.6692 29.8055 39.9531C29.8055 39.8034 29.8025 39.6538 29.8055 39.5027C29.8101 39.1656 29.6457 38.932 29.2779 38.9292C28.91 38.9264 28.7396 39.1558 28.7396 39.4943C28.7396 40.2146 28.7396 40.9335 28.7396 41.6539C28.7396 41.7993 28.7396 41.9448 28.7396 42.1112H26.1104C26.1104 41.9532 26.1104 41.7965 26.1104 41.6385C26.1104 40.4986 26.1149 39.3586 26.1074 38.2187C26.1043 37.8005 25.8752 37.5711 25.5194 37.6117C25.1289 37.6564 25.0415 37.9082 25.043 38.2271C25.0475 39.3516 25.0445 40.4762 25.0445 41.6021C25.0445 41.763 25.0445 41.9238 25.0445 42.1322H22.973C21.9705 42.1322 20.9679 42.1434 19.9668 42.1238C19.7528 42.1196 19.5417 42.0049 19.3306 41.942C19.4316 41.7686 19.501 41.5685 19.6397 41.4287C19.9895 41.0748 20.3633 40.7433 20.7387 40.4132C21.7941 39.4831 22.3067 38.3474 22.2825 36.9963C22.2705 36.2801 22.281 35.5626 22.281 34.8143H36.2461C36.2536 34.978 36.2657 35.15 36.2717 35.3221C36.3003 36.22 36.2596 37.1263 36.3727 38.0159C36.4888 38.9348 37.024 39.6957 37.7371 40.3419C38.1879 40.7503 38.6432 41.1559 39.0759 41.5811C39.1678 41.672 39.207 41.8469 39.1919 41.9756C39.1844 42.0371 38.9929 42.1238 38.8844 42.1252C37.1099 42.135 35.3355 42.1322 33.5052 42.1322V41.6119C33.5052 39.8426 33.5037 38.0718 33.5067 36.3025C33.5067 36.0158 33.4811 35.7514 33.1343 35.6493C32.7393 35.5333 32.4423 35.7976 32.4408 36.2773C32.4363 38.0467 32.4393 39.8174 32.4393 41.5867C32.4393 41.749 32.4393 41.9112 32.4393 42.1168L32.4363 42.1154Z" fill="#3C87C0"/>
    <path d="M22.2946 33.7514C22.2946 32.9304 22.2554 32.1513 22.3052 31.3765C22.3549 30.6072 23.0123 30.0869 23.8761 30.0729C24.7777 30.0575 25.6792 30.0701 26.6396 30.0701C26.6396 29.8505 26.6396 29.6757 26.6396 29.5008C26.6396 27.9553 26.6155 26.4112 26.6471 24.8656C26.6848 22.9732 28.6462 21.8053 30.4162 22.6123C31.4489 23.0823 31.9057 23.9019 31.9102 24.9509C31.9147 26.4811 31.9102 28.0112 31.9117 29.54C31.9117 29.7008 31.9117 29.8603 31.9117 30.0673C32.7846 30.0673 33.6048 30.0673 34.4249 30.0673C35.6611 30.0701 36.2612 30.6282 36.2657 31.7821C36.2687 32.4255 36.2657 33.0675 36.2657 33.75H22.2931L22.2946 33.7514ZM30.1945 24.8922C30.2021 24.4152 29.8101 24.0334 29.299 24.0208C28.7653 24.0082 28.3432 24.3901 28.3477 24.8838C28.3507 25.3566 28.7593 25.7356 29.2674 25.737C29.7754 25.7384 30.187 25.3635 30.1945 24.8908V24.8922Z" fill="#3C87C0"/>
    <path d="M16.4918 34.8047V38.956H4.49872V34.8047H16.4918ZM10.4749 37.3699C11.1714 37.3699 11.4428 37.2328 11.4398 36.8817C11.4368 36.5279 11.1579 36.3852 10.4704 36.3866C9.81306 36.3866 9.54923 36.5209 9.53114 36.8621C9.51304 37.2216 9.78894 37.3699 10.4734 37.3699H10.4749Z" fill="#3C87C0"/>
    <path d="M4.48517 33.7471V30.0056H16.4767V33.7471H4.48517ZM10.6769 31.3959C9.80102 31.3959 9.53266 31.5302 9.53115 31.8826C9.53115 32.2393 9.81157 32.3862 10.4945 32.3862C11.1639 32.3862 11.482 32.2211 11.4338 31.8645C11.3614 31.3316 10.9046 31.3931 10.6769 31.3959Z" fill="#3C87C0"/>
    <path d="M4.49573 28.9552V25.3229H16.4677V28.9552H4.49573ZM10.4794 27.6363C11.1669 27.6363 11.4368 27.5006 11.4413 27.1523C11.4458 26.7985 11.1624 26.646 10.493 26.646C9.81459 26.646 9.53719 26.7887 9.53116 27.1398C9.52513 27.4922 9.79951 27.6363 10.4779 27.6363H10.4794Z" fill="#3C87C0"/>
    <path d="M40.882 13.4452H35.9355C35.9355 12.2843 35.8496 11.143 35.9596 10.0171C36.0712 8.88695 37.312 8.05055 38.5211 8.12607C39.8131 8.2072 40.8337 9.11913 40.8744 10.2898C40.9106 11.3332 40.882 12.3781 40.882 13.4438V13.4452Z" fill="#3C87C0"/>
</svg>
